<?xml version="1.0" encoding="utf-8"?>
<svg width="272px" height="297px" viewBox="0 0 272 297" version="1.1" xmlns:xlink="http://www.w3.org/1999/xlink" xmlns="http://www.w3.org/2000/svg">
  <defs>
    <linearGradient gradientUnits="objectBoundingBox" x1="0" y1="0.5" x2="1" y2="0.5" id="gradient_1">
      <stop offset="0%" stop-color="#35D2AD" />
      <stop offset="50.56818%" stop-color="#16A34A" />
      <stop offset="100%" stop-color="#950DF6" />
    </linearGradient>
    <path d="M67.3281 -1.9375Q54.0078 -1.93747 41.5352 4.66211Q29.0625 11.2617 19.8594 23.6133Q10.5352 35.9648 5.26758 53.584Q0 71.2031 0 93.7266L0 178.734C0 180.995 0.645833 183.094 1.9375 185.031Q2.42188 185.758 3.99609 187.15Q5.57031 188.543 7.38672 189.027Q8.11328 189.391 10.2324 189.451C11.6452 189.492 12.9167 189.35 14.0469 189.027Q14.7734 188.785 16.5293 187.635Q18.2852 186.484 19.375 185.031Q19.8594 184.305 20.6465 182.367Q21.4336 180.43 21.4336 178.613L21.4336 178.734L21.4336 93.7266Q21.4336 73.8672 25.8535 59.6387Q30.2734 45.4102 36.9336 36.4492Q43.5938 27.6094 51.4648 23.5527Q59.3359 19.4961 67.3281 19.4961Q70.7187 19.4961 73.7461 17.4375Q74.4727 17.0742 75.7441 15.4395Q77.0156 13.8047 77.7422 12.1094Q77.9844 11.3828 78.1055 9.26367Q78.2266 7.14453 77.7422 5.44922Q77.3789 4.72266 76.2891 2.90625Q75.1992 1.08984 73.7461 0Q73.0195 -0.363281 71.0215 -1.15039Q69.0234 -1.93748 67.3281 -1.9375ZM180.672 -1.9375Q177.281 -1.93747 174.254 0Q173.527 0.605499 172.195 2.17969Q170.863 3.75392 170.258 5.44922Q169.895 6.29689 169.773 8.41602Q169.652 10.5352 170.258 12.1094Q170.621 12.957 171.711 14.7129Q172.801 16.4688 174.254 17.4375Q174.98 18.043 176.918 18.7695Q178.855 19.4961 180.672 19.4961Q188.543 19.4961 196.414 23.5527Q204.285 27.6094 211.066 36.4492Q217.605 45.4102 222.086 59.6387Q226.566 73.8672 226.566 93.7266L226.566 178.734Q226.445 182.125 228.625 185.031Q228.988 185.758 230.623 187.15Q232.258 188.543 233.953 189.027Q234.68 189.391 236.799 189.451C238.212 189.492 239.483 189.35 240.613 189.027Q241.34 188.785 243.156 187.635Q244.973 186.484 246.063 185.031Q246.426 184.305 247.213 182.367Q248 180.43 248 178.613L248 178.734L248 93.7266Q248 71.2031 242.672 53.584Q237.344 35.9648 228.141 23.6133Q218.816 11.2617 206.344 4.66211Q193.871 -1.93748 180.672 -1.9375ZM67.207 54.6133Q63.9375 54.6133 61.2734 56.4297Q60.5469 56.9141 59.2148 58.3672Q57.8828 59.8203 57.2773 61.2734Q56.9141 62 56.6719 63.998Q56.4297 65.9961 56.793 67.5703Q56.9141 68.2969 57.7617 70.1133Q58.6094 71.9297 59.8203 73.0195L116.492 129.691Q119.641 132.84 124 132.84Q125.09 132.84 127.512 132.053Q129.934 131.266 131.629 129.691L188.18 73.0195Q190.844 70.4766 191.328 67.0859Q191.449 66.2383 191.268 64.1191Q191.086 62 190.359 60.4258Q189.996 59.6992 188.543 58.125Q187.09 56.5508 185.637 55.7031Q184.789 55.3398 182.73 54.916Q180.672 54.4922 178.977 54.7344Q178.129 54.8555 176.191 55.7637Q174.254 56.6719 173.043 57.8828L124 106.926L74.957 57.8828Q73.3828 56.3086 71.4453 55.4609Q70.8398 55.3398 69.5684 54.9766Q68.2969 54.6133 67.207 54.6133Z" id="path_1" />
    <clipPath id="mask_1">
      <use xlink:href="#path_1" />
    </clipPath>
  </defs>
  <g id="mynx">
    <g id="M">
      <g id="M">
        <path d="M67.3281 -1.9375Q54.0078 -1.93747 41.5352 4.66211Q29.0625 11.2617 19.8594 23.6133Q10.5352 35.9648 5.26758 53.584Q0 71.2031 0 93.7266L0 178.734C0 180.995 0.645833 183.094 1.9375 185.031Q2.42188 185.758 3.99609 187.15Q5.57031 188.543 7.38672 189.027Q8.11328 189.391 10.2324 189.451C11.6452 189.492 12.9167 189.35 14.0469 189.027Q14.7734 188.785 16.5293 187.635Q18.2852 186.484 19.375 185.031Q19.8594 184.305 20.6465 182.367Q21.4336 180.43 21.4336 178.613L21.4336 178.734L21.4336 93.7266Q21.4336 73.8672 25.8535 59.6387Q30.2734 45.4102 36.9336 36.4492Q43.5938 27.6094 51.4648 23.5527Q59.3359 19.4961 67.3281 19.4961Q70.7187 19.4961 73.7461 17.4375Q74.4727 17.0742 75.7441 15.4395Q77.0156 13.8047 77.7422 12.1094Q77.9844 11.3828 78.1055 9.26367Q78.2266 7.14453 77.7422 5.44922Q77.3789 4.72266 76.2891 2.90625Q75.1992 1.08984 73.7461 0Q73.0195 -0.363281 71.0215 -1.15039Q69.0234 -1.93748 67.3281 -1.9375ZM180.672 -1.9375Q177.281 -1.93747 174.254 0Q173.527 0.605499 172.195 2.17969Q170.863 3.75392 170.258 5.44922Q169.895 6.29689 169.773 8.41602Q169.652 10.5352 170.258 12.1094Q170.621 12.957 171.711 14.7129Q172.801 16.4688 174.254 17.4375Q174.98 18.043 176.918 18.7695Q178.855 19.4961 180.672 19.4961Q188.543 19.4961 196.414 23.5527Q204.285 27.6094 211.066 36.4492Q217.605 45.4102 222.086 59.6387Q226.566 73.8672 226.566 93.7266L226.566 178.734Q226.445 182.125 228.625 185.031Q228.988 185.758 230.623 187.15Q232.258 188.543 233.953 189.027Q234.68 189.391 236.799 189.451C238.212 189.492 239.483 189.35 240.613 189.027Q241.34 188.785 243.156 187.635Q244.973 186.484 246.063 185.031Q246.426 184.305 247.213 182.367Q248 180.43 248 178.613L248 178.734L248 93.7266Q248 71.2031 242.672 53.584Q237.344 35.9648 228.141 23.6133Q218.816 11.2617 206.344 4.66211Q193.871 -1.93748 180.672 -1.9375ZM67.207 54.6133Q63.9375 54.6133 61.2734 56.4297Q60.5469 56.9141 59.2148 58.3672Q57.8828 59.8203 57.2773 61.2734Q56.9141 62 56.6719 63.998Q56.4297 65.9961 56.793 67.5703Q56.9141 68.2969 57.7617 70.1133Q58.6094 71.9297 59.8203 73.0195L116.492 129.691Q119.641 132.84 124 132.84Q125.09 132.84 127.512 132.053Q129.934 131.266 131.629 129.691L188.18 73.0195Q190.844 70.4766 191.328 67.0859Q191.449 66.2383 191.268 64.1191Q191.086 62 190.359 60.4258Q189.996 59.6992 188.543 58.125Q187.09 56.5508 185.637 55.7031Q184.789 55.3398 182.73 54.916Q180.672 54.4922 178.977 54.7344Q178.129 54.8555 176.191 55.7637Q174.254 56.6719 173.043 57.8828L124 106.926L74.957 57.8828Q73.3828 56.3086 71.4453 55.4609Q70.8398 55.3398 69.5684 54.9766Q68.2969 54.6133 67.207 54.6133Z" />
      </g>
    </g>
    <g clip-path="url(#mask_1)">
      <path d="M0 0L249 0L249 189L0 189L0 0Z" id="Rectangle" fill="url(#gradient_1)" fill-rule="evenodd" stroke="none" />
    </g>
  </g>
</svg>