<?xml version="1.0" encoding="utf-8"?>
<svg width="117px" height="40px" viewBox="0 0 117 40" version="1.1" xmlns:xlink="http://www.w3.org/1999/xlink" xmlns="http://www.w3.org/2000/svg">
  <g id="Spons">
    <g transform="translate(0, 7.4240003)" id="Spons" fill="#FFFFFF">
      <path d="M3.712 6.752C4 6.208 4.352 5.632 5.472 4.512C6.048 3.968 6.656 3.456 7.328 3.04C8.704 2.144 10.912 1.408 13.216 1.408C15.52 1.408 17.824 2.24 19.104 3.104C19.776 3.52 20.384 4.032 20.96 4.576C22.112 5.696 22.272 6.016 22.432 6.272L23.456 5.664L23.072 5.12C22.56 4.352 21.344 3.2 19.808 2.176C18.304 1.12 15.776 0.255999 13.216 0.255999C9.12 0.255999 6.24 2.048 4.384 3.968C3.104 5.28 2.464 6.336 2.08 7.264L22.88 18.08C22.4 18.976 21.536 20.064 19.968 21.44C18.432 22.816 15.904 23.808 13.216 23.808C10.432 23.808 7.808 22.624 6.4 21.44C5.696 20.832 5.056 20.16 4.448 19.36C3.84 18.56 3.488 18.016 3.328 17.728C3.168 17.44 3.072 17.184 2.976 16.992L1.92 17.568L2.272 18.304C2.752 19.328 4 20.864 5.632 22.304C7.264 23.744 10.112 24.896 13.216 24.896C15.808 24.896 18.304 24.032 19.872 23.008C20.672 22.464 21.376 21.856 22.048 21.152C23.36 19.712 23.968 18.656 24.448 17.6L3.712 6.752ZM47.392 15.712C47.392 13.248 46.496 11.104 44.736 9.28C42.976 7.424 40.768 6.496 38.176 6.496C35.744 6.496 33.6 7.392 31.712 9.152C29.856 10.912 28.928 13.088 28.928 15.712L28.928 31.744L30.08 31.744L30.08 15.488C30.08 13.344 30.88 11.52 32.48 9.952C34.112 8.384 36 7.616 38.176 7.616C40.32 7.616 42.208 8.384 43.808 9.952C45.44 11.52 46.24 13.44 46.24 15.712Q46.24 18.928 43.936 21.376C42.432 23.008 40.512 23.808 38.176 23.808C37.088 23.808 36.032 23.584 35.008 23.168L34.56 24.192C35.744 24.672 36.928 24.928 38.176 24.928C40.576 24.928 42.72 24.064 44.576 22.304C46.464 20.544 47.392 18.336 47.392 15.712ZM69.6 15.68C69.6 13.184 68.704 11.04 66.88 9.216C65.088 7.392 62.944 6.496 60.416 6.496C57.888 6.496 55.712 7.392 53.92 9.216C52.128 11.008 51.232 13.152 51.232 15.68C51.232 18.208 52.128 20.352 53.92 22.176C55.744 23.968 57.888 24.864 60.416 24.864C62.944 24.864 65.088 23.968 66.88 22.176C68.704 20.352 69.6 18.208 69.6 15.68ZM68.48 15.68C68.48 17.888 67.68 19.808 66.112 21.376C64.544 22.944 62.624 23.744 60.416 23.744C58.208 23.744 56.288 22.944 54.72 21.376C53.152 19.808 52.352 17.888 52.352 15.68C52.352 13.504 53.152 11.616 54.72 10.016C56.32 8.416 58.208 7.616 60.416 7.616Q63.728 7.616 66.08 10.016Q68.48 12.416 68.48 15.68ZM92.608 15.648C92.608 13.12 91.68 10.976 89.856 9.184C88.032 7.36 85.856 6.464 83.328 6.464C80.8 6.464 78.624 7.36 76.8 9.184C74.976 10.976 74.08 13.12 74.08 15.648L74.08 24.576L75.264 24.576L75.264 15.648Q75.264 12.336 77.664 9.984Q80.064 7.584 83.328 7.584C85.536 7.584 87.424 8.384 89.024 9.984Q91.424 12.336 91.424 15.648L91.424 24.576L92.608 24.576L92.608 15.648ZM98.592 12C99.2 10.72 100.192 9.664 101.504 8.864C102.816 8.032 104.224 7.616 105.696 7.616C108.224 7.616 110.784 8.832 112.416 11.264L113.376 10.624C111.712 8.064 108.8 6.496 105.696 6.496C103.68 6.496 101.92 7.072 100.384 8.192C98.88 9.312 97.76 10.752 97.088 12.512L112.896 19.424C111.584 21.888 109.024 23.776 105.696 23.776Q103.248 23.776 101.184 22.432C99.808 21.536 98.816 20.352 98.208 18.848L97.152 19.232C98.016 21.408 99.68 23.072 101.376 23.84C103.136 24.576 104.544 24.896 105.696 24.896C107.648 24.896 109.376 24.352 110.944 23.232C112.512 22.112 113.632 20.672 114.368 18.848L98.592 12Z" />
    </g>
  </g>
</svg>