<?xml version="1.0" encoding="utf-8"?>
<svg width="400px" height="400px" viewBox="0 0 400 400" version="1.1" xmlns:xlink="http://www.w3.org/1999/xlink" xmlns="http://www.w3.org/2000/svg">
  <g id="logo-main">
    <path d="M0 200C0 89.543 89.543 0 200 0C310.457 0 400 89.543 400 200C400 310.457 310.457 400 200 400C89.543 400 0 310.457 0 200Z" id="Oval" fill="#E82646" fill-rule="evenodd" stroke="none" />
    <g id="logo-outline" transform="translate(72 70)">
      <path d="M203.02 34.5372C216.746 46.9072 228.222 58.8465 237.212 75.1342C238.241 76.986 239.27 78.8377 240.329 80.7456C257.653 113.555 257.653 113.555 254.156 131.037C230.113 131.037 206.07 131.037 181.298 131.037C173.766 115.976 166.809 100.986 160.31 85.4968C153.214 68.0084 153.214 68.0084 138.939 56.4999C136.422 55.6614 136.422 55.6614 133.855 54.8059C134.28 55.8158 134.704 56.8256 135.142 57.866C143.641 78.1068 152.043 98.3838 160.224 118.755C160.951 120.558 161.678 122.36 162.427 124.217C163.1 125.9 163.773 127.583 164.467 129.316C165.06 130.796 165.653 132.276 166.264 133.801C173.683 153.927 171.704 179.519 163.467 199.003C152.514 220.355 134.658 233.837 112.252 241.678C96.9144 244.913 80.3115 244.575 66.0805 237.76C64.7285 237.118 63.3765 236.476 61.9836 235.815C41.8503 225.017 27.8039 205.823 18.6381 185.246C17.4269 178.602 17.4269 178.602 16.9437 173.387C22.0268 173.387 22.0268 173.387 24.6412 175.935C25.5607 177.086 26.4803 178.237 27.4276 179.422C38.4275 192.449 50.1351 203.965 67.7021 206.216C78.2863 206.628 88.4473 206.232 96.5792 198.798C102.944 189.077 106.983 179.214 107.169 167.564C107.235 165.157 107.235 165.157 107.301 162.701C105.867 146.561 100.412 132.001 93.72 117.379C92.93 115.618 92.14 113.858 91.3261 112.044C89.084 107.063 86.8251 102.091 84.5558 97.1233C82.9228 93.5463 81.2945 89.9672 79.6669 86.3877C74.4036 74.8159 69.1299 63.249 63.8268 51.6954C62.7408 49.3273 61.6574 46.958 60.5769 44.5874C58.0501 39.0563 55.4798 33.5582 52.7812 28.1085C51.8341 26.1661 50.887 24.2237 49.9112 22.2225C49.0655 20.5328 48.2198 18.8432 47.3485 17.1024C45.5539 11.8917 45.8522 9.19041 47.4424 3.98528C100.803 -4.57517 159.745 -1.46362 203.02 34.5372L203.02 34.5372ZM54.2199 10.7614C55.2644 17.1868 57.1503 22.4479 59.9318 28.3236C60.757 30.0841 61.5822 31.8446 62.4324 33.6584C63.7664 36.4747 63.7664 36.4747 65.1274 39.348C72.7943 55.7234 80.2018 72.1782 87.34 88.7902C90.8388 96.9083 94.4192 104.963 98.238 112.936C109.646 136.776 116.517 159.206 110.591 185.696C106.597 196.583 100.425 203.602 90.4371 209.491C80.0502 214.236 69.9118 214.035 59.0912 210.735C49.1128 206.795 40.5788 202.079 32.1931 195.41C39.9142 212.33 53.6656 225.253 70.2105 233.313C85.6814 238.962 104.176 238.471 119.453 232.572C128.623 228.114 136.513 222.617 144.022 215.738C145.457 214.441 145.457 214.441 146.921 213.118C157.617 202.152 163.515 185.101 164.354 169.999C164.439 168.635 164.524 167.27 164.612 165.864C165.526 140.16 154.044 117.896 143.916 94.9331C141.803 90.1192 139.696 85.3034 137.596 80.4838C136.298 77.5049 134.991 74.5293 133.676 71.5579C130.283 63.8003 127.494 56.2328 125.384 48.0299C135.786 49.5919 144.384 51.0293 152.493 58.194C160.909 70.252 166.521 83.5412 172.402 96.9447C173.41 99.2215 174.418 101.498 175.427 103.774C177.261 107.911 179.089 112.051 180.912 116.194C182.118 118.906 183.359 121.606 184.687 124.261C205.934 124.261 227.181 124.261 249.073 124.261C238.727 82.8858 218.753 50.6302 182.132 27.7148C170.857 21.1094 159.956 16.3215 147.304 12.9848C146.01 12.6256 144.716 12.2663 143.383 11.8962C127.567 7.60823 112.373 7.06393 96.0497 7.05571C92.8275 7.02459 92.8275 7.02459 89.5403 6.99285C77.3446 6.9739 66.0502 7.71155 54.2199 10.7614L54.2199 10.7614Z" id="Shape" fill="#FFFFFF" fill-rule="evenodd" stroke="none" />
      <path d="M195.427 142.559C197.685 142.564 197.685 142.564 199.989 142.569C201.524 142.567 203.06 142.566 204.642 142.564C207.895 142.563 211.148 142.566 214.402 142.573C219.4 142.582 224.397 142.573 229.395 142.563C232.548 142.564 235.701 142.566 238.853 142.569C240.359 142.566 241.864 142.562 243.416 142.559C253.961 142.599 253.961 142.599 255.85 144.488C257.38 175.594 247.156 201.578 226.827 224.848C207.672 245.13 180.44 258.398 152.37 259.974C146.618 260.074 140.879 260.061 135.126 259.999C132.184 259.998 132.184 259.998 129.183 259.996C120.885 259.953 113.167 259.849 105.051 257.988C105.23 254.844 105.23 254.844 106.745 251.211C111.385 249.114 111.385 249.114 117.441 247.294C140.658 239.696 161.049 227.054 172.962 205.071C181.601 187.923 183.38 173.68 183.018 154.704C182.955 151.299 182.967 147.893 182.992 144.488C186.25 141.231 191.093 142.575 195.427 142.559L195.427 142.559ZM189.77 149.57C189.63 154.462 189.49 159.353 189.346 164.393C188.243 188.86 180.472 208.836 164.354 227.495C151.35 238.908 137.922 246.356 121.995 252.906C121.995 253.465 121.995 254.024 121.995 254.6C155.998 255.806 189.581 249.898 216.257 227.065C233.523 210.601 246.213 188.855 249.073 164.816C249.073 159.785 249.073 154.754 249.073 149.57C229.503 149.57 209.933 149.57 189.77 149.57L189.77 149.57Z" id="Shape" fill="#FFFFFF" fill-rule="evenodd" stroke="none" />
      <path d="M24.7537 13.5522C26.4312 13.5522 28.1086 13.5522 29.8369 13.5522C41.9533 40.2678 53.6113 67.1682 65.047 94.1814C66.4885 97.5865 67.9319 100.991 69.3773 104.394C71.4375 109.249 73.4893 114.106 75.5386 118.965C76.1521 120.409 76.7656 121.853 77.3977 123.341C81.1866 132.361 84.4701 141.449 87.4455 150.768C88.0047 152.445 88.5638 154.122 89.1399 155.85C90.4794 166.621 89.5992 174.664 83.1831 183.583C77.8541 189.43 72.6759 191.132 64.9951 192.166C45.1745 189.854 31.5491 178.168 19.247 163.05C1.03195 137.026 -2.71607 106.106 1.66048 75.1821C5.01965 56.9115 11.2156 27.0876 24.7537 13.5522L24.7537 13.5522ZM26.4481 23.7163C20.8281 33.6629 16.7025 43.7557 13.3167 54.6322C12.9603 55.7721 12.6039 56.912 12.2366 58.0864C2.93512 88.8797 4.93552 123.343 19.1411 152.144C27.5629 166.56 39.4829 178.312 55.2524 184.225C63.4103 185.244 68.7671 185.548 76.2203 181.684C80.9731 177.611 81.3582 176.888 82.3624 171.096C82.5742 169.926 82.7861 168.755 83.0044 167.549C83.8485 156.489 81.0316 147.938 76.8491 137.93C76.2571 136.484 75.6652 135.037 75.0554 133.546C66.6072 113.029 57.8029 92.6577 49.0259 72.2792C46.6594 66.782 44.2978 61.2827 41.9357 55.7836C37.3426 45.0925 32.7443 34.4036 28.1425 23.7163C27.5833 23.7163 27.0242 23.7163 26.4481 23.7163L26.4481 23.7163Z" id="Shape" fill="#FFFFFF" fill-rule="evenodd" stroke="none" />
    </g>
  </g>
</svg>